<svg xmlns="http://www.w3.org/2000/svg" width="1024" height="1024" viewBox="0 0 1024 1024">
  <defs>
    <linearGradient id="bg" x1="100" y1="80" x2="920" y2="950" gradientUnits="userSpaceOnUse">
      <stop stop-color="#171B38"/>
      <stop offset="1" stop-color="#283877"/>
    </linearGradient>
    <linearGradient id="fur" x1="360" y1="220" x2="670" y2="700" gradientUnits="userSpaceOnUse">
      <stop stop-color="#FF9A53"/>
      <stop offset="1" stop-color="#EE542F"/>
    </linearGradient>
    <filter id="shadow" x="-30%" y="-30%" width="160%" height="170%">
      <feDropShadow dx="0" dy="32" stdDeviation="36" flood-color="#071022" flood-opacity=".5"/>
    </filter>
  </defs>
  <rect width="1024" height="1024" fill="url(#bg)"/>
  <circle cx="222" cy="232" r="210" fill="#6EE7E7" opacity=".08"/>
  <circle cx="884" cy="790" r="290" fill="#8C7CFF" opacity=".12"/>
  <g filter="url(#shadow)">
    <path d="M316 430 350 220 474 355Z" fill="url(#fur)"/>
    <path d="m708 430-34-210-124 135Z" fill="url(#fur)"/>
    <path d="m353 282 20 118 73-61Z" fill="#802E34" opacity=".72"/>
    <path d="m671 282-20 118-73-61Z" fill="#802E34" opacity=".72"/>
    <rect x="298" y="302" width="428" height="405" rx="188" fill="url(#fur)"/>
    <path d="M341 487c50 31 93 37 171 37s121-6 171-37v129c-45 64-99 91-171 91s-126-27-171-91Z" fill="#FFC79A" opacity=".7"/>
    <ellipse cx="424" cy="472" rx="34" ry="43" fill="#16182B"/>
    <ellipse cx="600" cy="472" rx="34" ry="43" fill="#16182B"/>
    <circle cx="414" cy="458" r="10" fill="#fff"/>
    <circle cx="590" cy="458" r="10" fill="#fff"/>
    <path d="M483 559c17-13 41-13 58 0-4 22-15 33-29 33s-25-11-29-33Z" fill="#62313A"/>
    <path d="M512 592c-4 30-24 45-51 41M512 592c4 30 24 45 51 41" fill="none" stroke="#62313A" stroke-width="16" stroke-linecap="round"/>
    <rect x="143" y="640" width="738" height="231" rx="116" fill="#05060A"/>
    <rect x="348" y="612" width="125" height="124" rx="55" fill="#FF8250" transform="rotate(-8 348 612)"/>
    <rect x="551" y="612" width="125" height="124" rx="55" fill="#FF8250" transform="rotate(8 551 612)"/>
    <path d="M332 790h360" stroke="#29304D" stroke-width="14" stroke-linecap="round" opacity=".7"/>
  </g>
</svg>
